# xmcd
#
# Track frame offsets:
#	150
#	17287
#	38910
#	57201
#	68194
#	81589
#	100143
#	120352
#	135706
#	155644
#	177106
#	193284
#	214936
#	232441
#	253627
#	275070
#	294796
#	311698
#	329253
#
# Disc length: 4685 seconds
# Revision: 2
# Processed by: cddbd v1.5.2PL0 Copyright (c) Steve Scherf et al.
# Submitted via: dBpowerAMP V12.0
#
DISCID=1c124b13
DTITLE=Bobby Bland - Not Ashamed To Sing The Blues
DYEAR=1987
DGENRE=Blues
TTITLE0=Get Your Money Where You Spend Your Time
TTITLE1=I'm Not Ashamed To Sing The Blues
TTITLE2=Midnight Run
TTITLE3=St.James Infirmary
TTITLE4=24 Hours A Day
TTITLE5=Members Only
TTITLE6=I've Just Got To Know
TTITLE7=Lay Love Aside
TTITLE8=My Heart's Been Broken Again
TTITLE9=Tonight's The Night (Gonna Be Alright)
TTITLE10=Need Your Love So Bad
TTITLE11=Take Off Your Shoes
TTITLE12=Ain't No Sunshine
TTITLE13=Love Of Mine
TTITLE14=There's A Stranger In My House
TTITLE15=God Bless The Child
TTITLE16=Second Hand Heart
TTITLE17=Straight From The Shoulder
TTITLE18=I Stand Accused
EXTD=
EXTT0=
EXTT1=
EXTT2=
EXTT3=
EXTT4=
EXTT5=
EXTT6=
EXTT7=
EXTT8=
EXTT9=
EXTT10=
EXTT11=
EXTT12=
EXTT13=
EXTT14=
EXTT15=
EXTT16=
EXTT17=
EXTT18=
PLAYORDER=
